<?xml version="1.0" standalone="no"?>
<!DOCTYPE svg PUBLIC "-//W3C//DTD SVG 20010904//EN"
 "http://www.w3.org/TR/2001/REC-SVG-20010904/DTD/svg10.dtd">
<svg version="1.0" xmlns="http://www.w3.org/2000/svg"
 width="1280.000000pt" height="853.000000pt" viewBox="0 0 1280.000000 853.000000"
 preserveAspectRatio="xMidYMid meet">
<metadata>
Created by potrace 1.15, written by Peter Selinger 2001-2017
</metadata>
<g transform="translate(0.000000,853.000000) scale(0.100000,-0.100000)"
fill="#000000" stroke="none">
<path d="M11095 8490 c-3 -6 -16 -8 -29 -4 -14 3 -49 -8 -96 -30 -41 -20 -80
-36 -87 -36 -7 0 -13 -6 -13 -14 0 -25 -46 -47 -74 -36 -26 9 -42 7 -82 -12
-15 -7 -28 -7 -42 1 -11 6 -32 11 -46 11 -14 0 -28 5 -31 10 -3 6 -39 10 -80
10 -60 0 -78 4 -92 19 -10 11 -30 22 -45 26 -15 4 -32 13 -38 20 -6 7 -19 11
-29 8 -10 -3 -22 0 -25 6 -9 14 -66 14 -101 1 -14 -5 -50 -11 -81 -12 -30 -1
-60 -8 -66 -15 -8 -10 -25 -11 -59 -7 -50 7 -98 -6 -131 -34 -14 -11 -28 -12
-74 -4 -31 5 -69 6 -83 3 -14 -4 -38 -3 -53 3 -19 7 -42 6 -80 -3 -114 -27
-132 -26 -166 10 -26 28 -37 33 -73 31 -28 -2 -48 3 -61 15 -15 13 -34 17 -86
15 -101 -3 -289 -43 -332 -70 -14 -9 -29 -15 -33 -14 -5 1 -21 -5 -37 -15 -22
-13 -32 -14 -43 -5 -11 10 -24 2 -65 -36 -79 -73 -102 -126 -102 -236 l0 -91
-25 60 c-14 33 -25 65 -25 70 0 37 -123 203 -173 234 -18 10 -50 23 -72 26
-22 4 -48 12 -57 16 -10 6 -27 5 -43 -3 -20 -9 -31 -8 -50 2 -18 10 -29 10
-36 3 -7 -7 -22 -5 -48 8 -29 14 -53 17 -107 13 -38 -3 -82 -5 -99 -5 -16 0
-77 1 -135 2 -58 0 -112 -1 -120 -4 -77 -26 -81 -27 -78 -9 6 34 -80 12 -159
-41 -34 -22 -47 -26 -62 -18 -14 8 -22 7 -31 -4 -10 -13 -15 -12 -30 7 -15 18
-27 21 -86 20 -37 0 -73 2 -79 6 -5 4 -28 7 -51 7 -33 0 -46 6 -66 29 -17 21
-29 27 -39 20 -8 -5 -22 -7 -32 -5 -12 1 -20 -5 -24 -18 -5 -21 -27 -27 -80
-22 -12 1 -48 -3 -80 -8 -34 -5 -65 -5 -75 0 -9 5 -19 5 -22 0 -8 -12 -64 -24
-114 -23 -33 0 -50 6 -71 26 -30 28 -113 46 -148 31 -25 -11 -85 -6 -102 8
-21 18 -209 18 -215 0 -4 -10 -11 -11 -23 -4 -18 9 -132 -22 -184 -49 -16 -9
-27 -9 -45 0 -17 10 -30 10 -51 2 -15 -7 -55 -14 -88 -16 -33 -2 -77 -11 -97
-20 -21 -9 -44 -16 -51 -16 -8 0 -27 -10 -43 -22 -32 -26 -41 -29 -113 -35
-40 -4 -52 -2 -46 7 4 7 18 10 31 7 27 -5 80 36 69 53 -4 6 -1 17 5 25 17 20
8 19 -32 -4 -35 -20 -56 -21 -101 -2 -38 15 -47 14 -69 -6 -16 -14 -24 -15
-66 -4 -87 23 -98 23 -111 7 -8 -9 -21 -16 -31 -16 -9 0 -25 -9 -35 -20 -16
-18 -20 -18 -46 -4 -16 8 -35 14 -42 13 -26 -3 -37 2 -37 16 0 9 -11 20 -25
25 -14 5 -25 16 -25 24 0 20 -44 46 -79 46 -17 0 -48 -6 -68 -14 -21 -7 -56
-19 -78 -26 -22 -7 -48 -20 -58 -29 -42 -36 -103 -196 -133 -346 -7 -35 -9
-29 -15 55 -11 145 -20 194 -37 208 -9 6 -12 12 -7 12 4 0 0 9 -11 21 -11 13
-26 18 -39 15 -11 -3 -27 -1 -35 4 -13 9 -13 11 0 20 29 18 -57 44 -150 45
-47 1 -87 3 -90 4 -15 7 -76 8 -85 1 -23 -17 -76 -20 -100 -4 -20 13 -40 15
-110 9 -56 -5 -89 -4 -98 3 -17 14 -145 24 -152 12 -6 -10 -181 -6 -206 5 -10
3 -20 2 -24 -4 -3 -6 -15 -11 -26 -11 -10 0 -19 -4 -19 -10 0 -31 -18 -62 -33
-57 -7 2 -28 -4 -47 -15 -42 -22 -60 -23 -60 -3 0 8 9 15 19 15 25 0 38 20 20
31 -8 5 -9 9 -4 9 6 0 4 4 -4 9 -18 11 -5 31 20 31 11 0 18 4 14 9 -3 6 -23 9
-44 9 -22 0 -44 3 -50 6 -21 13 -57 19 -136 21 -44 1 -82 3 -85 4 -3 1 -30 4
-62 6 -40 3 -57 1 -61 -9 -3 -7 -20 -20 -39 -29 -30 -14 -41 -14 -91 -3 -32 7
-59 10 -62 6 -7 -12 -182 2 -226 18 -26 10 -75 -5 -88 -27 -5 -8 -45 -14 -112
-16 -101 -4 -223 -24 -249 -40 -7 -4 -16 -2 -20 5 -6 10 -15 10 -42 1 -37 -12
-132 1 -144 20 -3 5 -15 9 -28 9 -12 0 -26 3 -30 7 -11 11 -129 11 -143 0 -7
-5 -20 -7 -28 -3 -9 3 -38 -8 -65 -25 -57 -35 -86 -35 -52 -1 26 26 26 28 8
35 -8 3 -33 -3 -55 -14 -22 -10 -47 -19 -56 -19 -8 0 -15 -4 -15 -9 0 -4 -24
-14 -52 -20 -29 -7 -63 -15 -76 -18 -15 -4 -27 0 -36 12 -7 10 -22 19 -33 20
-11 0 -28 9 -37 18 -20 19 -32 21 -41 7 -3 -6 -17 -7 -30 -4 -12 3 -25 2 -28
-3 -3 -5 -21 -8 -39 -7 -70 6 -98 11 -105 17 -8 9 -58 9 -66 0 -17 -16 -114
-43 -138 -38 -20 5 -34 0 -53 -18 -30 -28 -32 -37 -11 -37 28 0 15 -28 -33
-70 -48 -42 -73 -90 -47 -90 7 0 15 -6 18 -12 3 -10 8 -10 21 1 9 8 19 11 22
8 3 -3 -6 -16 -22 -29 -67 -57 -75 -77 -53 -135 18 -47 21 -140 4 -156 -8 -9
-10 -18 -4 -24 14 -14 -12 -123 -31 -124 -10 0 -11 -2 -3 -6 10 -3 9 -8 -2
-19 -19 -20 0 -65 24 -56 13 5 14 3 4 -10 -7 -8 -15 -34 -18 -58 -5 -41 -5
-43 12 -28 16 14 20 14 31 2 11 -12 8 -17 -16 -31 -36 -21 -58 -96 -49 -170 4
-33 1 -54 -9 -67 -8 -11 -11 -29 -8 -43 4 -15 0 -31 -10 -42 -10 -11 -19 -38
-22 -62 -9 -74 -6 -197 5 -216 5 -11 7 -47 4 -82 -5 -47 -3 -62 5 -57 16 10
15 -7 0 -23 -11 -10 -8 -11 14 -6 34 9 35 -1 6 -32 l-22 -24 42 7 c38 6 42 5
42 -14 0 -21 -14 -35 -38 -38 -25 -4 -43 -27 -38 -48 3 -11 0 -41 -5 -68 -14
-66 -4 -78 57 -67 25 5 49 11 55 14 5 3 6 -1 3 -9 -6 -15 9 -15 76 0 38 9 223
5 232 -4 5 -5 -35 -12 -91 -15 -55 -4 -112 -12 -128 -19 -15 -6 -36 -12 -47
-14 -25 -2 -42 -32 -38 -66 1 -3 -5 -12 -13 -18 -8 -7 -15 -19 -15 -26 0 -8
-4 -14 -10 -14 -13 0 -13 -27 1 -32 15 -5 0 -36 -21 -43 -23 -7 -57 -45 -40
-45 7 0 10 -7 6 -16 -3 -9 5 -39 19 -68 39 -80 41 -122 11 -179 -25 -47 -35
-107 -17 -107 17 0 6 -62 -13 -76 -11 -8 -17 -17 -13 -20 4 -4 13 -1 22 6 9 8
15 8 15 2 0 -6 -15 -22 -32 -37 -21 -16 -25 -23 -13 -19 19 7 19 7 2 -13 -9
-11 -17 -27 -17 -37 0 -13 4 -15 19 -6 31 16 36 12 13 -13 -24 -25 -21 -50 11
-104 13 -23 26 -33 43 -33 22 0 24 -4 24 -55 0 -42 -3 -55 -15 -55 -8 0 -15
-9 -15 -20 0 -11 -6 -20 -14 -20 -8 0 -24 -8 -37 -19 -23 -18 -23 -19 -5 -46
12 -19 19 -55 23 -121 5 -76 8 -92 19 -83 16 13 34 4 34 -17 0 -8 7 -14 15
-14 20 0 19 -6 -5 -30 -21 -21 -28 -46 -10 -35 6 3 10 0 10 -7 1 -8 4 -7 10 4
6 10 18 14 30 11 19 -5 19 -7 5 -23 -22 -24 -18 -38 9 -33 24 5 24 5 11 -33
-11 -33 -11 -40 1 -47 17 -10 9 -53 -16 -82 -10 -11 -15 -26 -13 -32 3 -7 -7
-17 -22 -23 -32 -12 -64 -48 -65 -72 0 -9 -5 -18 -12 -20 -10 -4 -9 -14 2 -47
9 -28 18 -40 27 -36 10 3 13 -1 8 -14 -8 -25 9 -35 27 -17 19 18 58 30 58 17
0 -13 66 16 96 41 26 23 34 23 34 -3 0 -16 4 -19 18 -14 58 24 67 14 27 -29
-18 -20 -23 -32 -16 -43 7 -14 11 -12 26 10 20 31 31 33 56 11 18 -16 17 -17
-5 -35 -13 -11 -31 -19 -40 -19 -19 0 -66 -29 -66 -40 0 -4 14 -10 31 -14 25
-5 40 0 75 26 45 32 70 32 41 0 -21 -23 -12 -33 22 -26 l26 6 -25 -21 c-14
-11 -68 -34 -120 -51 -52 -16 -109 -38 -126 -49 -39 -24 -90 -100 -111 -168
-16 -50 -16 -54 1 -72 18 -20 18 -21 -8 -32 -28 -13 -33 -28 -14 -47 9 -9 9
-15 0 -24 -18 -18 -15 -27 7 -21 10 3 22 0 26 -7 10 -17 -15 -41 -36 -35 -23
8 -26 -17 -4 -35 8 -7 15 -18 15 -25 0 -14 -40 -52 -41 -39 0 5 -4 0 -9 -11
-12 -29 -12 -109 1 -160 9 -34 8 -72 -5 -172 -17 -132 -38 -189 -69 -187 -20
2 -21 -5 -4 -31 36 -54 60 -148 62 -244 1 -55 7 -106 14 -120 14 -25 7 -106
-10 -116 -14 -9 -11 -45 5 -45 11 0 10 -8 -5 -40 -16 -33 -17 -44 -8 -62 9
-16 9 -23 0 -26 -13 -4 -15 -93 -3 -107 5 -6 15 -30 22 -55 8 -25 20 -54 27
-65 7 -11 13 -27 13 -36 0 -9 9 -26 20 -39 26 -30 25 -34 -7 -59 l-28 -20 30
0 c82 1 264 -11 290 -19 25 -8 18 -10 -40 -9 -38 0 -118 -2 -177 -3 l-107 -3
-6 -28 c-4 -16 -4 -33 0 -39 3 -5 -1 -20 -9 -32 -12 -16 -14 -36 -10 -75 5
-39 3 -59 -9 -77 -11 -16 -16 -46 -16 -93 1 -96 -7 -257 -20 -395 -11 -123
-10 -216 3 -237 4 -6 2 -18 -4 -27 -7 -8 -15 -56 -17 -109 -5 -92 -5 -94 22
-119 23 -21 25 -26 10 -26 -13 0 -16 -5 -10 -23 3 -12 9 -32 12 -44 3 -13 12
-23 19 -23 24 0 15 -29 -11 -36 -32 -8 -38 -31 -38 -140 -1 -70 3 -98 16 -118
9 -14 17 -31 17 -39 0 -7 11 -24 25 -37 20 -19 35 -24 65 -21 33 2 39 0 34
-13 -9 -23 13 -45 38 -38 16 4 20 2 16 -10 -4 -10 10 -25 42 -46 27 -18 51
-32 54 -32 3 0 16 -11 30 -25 15 -15 36 -25 54 -25 16 0 35 -7 42 -15 7 -9 19
-14 26 -11 7 3 16 1 19 -4 9 -15 41 -12 55 5 7 8 17 12 24 8 6 -4 19 -6 28 -5
9 2 21 -6 27 -17 8 -14 20 -19 48 -17 21 1 43 5 49 9 7 4 17 0 24 -8 17 -20
74 -20 66 0 -3 8 0 19 7 25 64 52 79 61 93 56 9 -3 26 5 42 19 29 27 38 30 47
15 8 -13 -17 -50 -35 -50 -13 0 -13 -1 0 -10 12 -8 12 -12 2 -18 -10 -7 -10
-12 3 -22 15 -12 20 -11 37 10 19 25 20 25 15 3 -5 -20 -1 -23 31 -25 64 -2
97 3 108 17 8 10 14 11 21 4 14 -14 32 -3 43 26 8 21 13 22 62 17 29 -3 64 -5
78 -4 14 1 51 4 83 6 48 4 67 0 104 -19 43 -23 47 -24 75 -9 30 15 31 15 25
-5 -6 -25 0 -27 23 -6 14 13 23 14 46 4 16 -6 38 -15 49 -20 35 -14 113 -20
119 -10 5 7 16 7 34 0 15 -6 70 -10 122 -8 52 1 111 3 130 4 20 0 53 11 74 23
22 13 52 26 68 29 16 3 31 10 34 14 8 14 24 10 24 -6 0 -10 10 -15 33 -15 19
0 48 -7 66 -16 22 -11 45 -14 74 -10 48 7 52 7 145 5 37 0 88 6 114 14 33 10
50 11 57 4 6 -6 37 -12 68 -13 32 -1 75 -9 96 -18 21 -9 42 -14 48 -10 5 3 25
-2 44 -11 33 -15 38 -15 85 2 29 10 48 23 46 29 -5 14 38 54 59 54 8 0 15 6
15 13 0 7 9 13 21 14 17 2 18 -1 9 -13 -10 -11 -9 -14 6 -15 11 0 14 -3 7 -6
-7 -2 -13 -9 -13 -14 0 -6 5 -7 10 -4 6 3 13 0 16 -8 3 -10 23 -14 65 -15 33
-1 66 -6 74 -12 9 -7 21 -7 39 0 15 5 42 10 61 10 18 0 54 9 80 20 37 16 54
18 88 11 49 -11 115 -1 152 23 14 9 25 12 25 6 0 -5 8 -10 19 -10 28 0 105 73
133 127 14 26 39 74 57 105 18 32 41 81 51 109 l18 51 16 -50 c10 -31 16 -69
13 -94 -6 -54 23 -168 54 -212 39 -57 61 -64 173 -60 62 2 112 -1 132 -8 25
-9 45 -9 82 0 55 12 100 2 136 -30 22 -20 81 -24 91 -8 4 6 16 8 27 5 12 -4
27 0 38 10 14 13 23 14 38 6 24 -13 123 -16 175 -6 37 7 97 -9 97 -26 0 -12
50 -34 76 -34 11 1 31 11 44 23 13 12 37 22 52 22 19 0 42 12 66 34 20 19 57
53 82 76 56 51 77 63 85 50 4 -6 11 -7 17 -4 7 5 9 1 5 -9 -4 -12 -1 -17 10
-17 14 0 14 -2 -3 -15 -17 -13 -17 -14 -2 -15 9 0 20 5 23 10 3 6 11 10 17 10
7 0 0 -13 -15 -28 -24 -25 -35 -52 -22 -52 3 0 19 10 35 22 36 26 52 17 19
-11 -28 -24 -13 -28 19 -6 16 12 26 13 42 5 15 -8 20 -8 20 1 0 6 7 8 16 5 8
-3 30 1 49 8 18 8 36 12 38 9 3 -2 17 3 31 12 25 16 26 16 28 -1 1 -11 2 -26
4 -34 1 -8 2 -19 3 -23 1 -4 9 -4 18 1 12 7 21 4 34 -12 l17 -21 24 22 c20 19
53 30 68 23 3 -1 43 -4 89 -5 46 -2 88 -8 94 -14 13 -13 64 -15 72 -2 3 5 29
17 58 26 28 9 58 19 65 21 8 4 10 0 5 -12 -5 -14 -2 -16 23 -10 16 4 48 8 72
11 24 2 49 9 57 15 15 12 66 3 77 -13 14 -22 89 -16 129 9 21 13 52 24 68 24
16 0 43 8 60 17 30 18 30 17 59 -11 25 -23 33 -26 50 -17 15 8 29 7 54 -3 18
-7 38 -12 44 -9 7 2 27 -5 46 -16 21 -11 40 -16 48 -11 7 5 21 3 30 -2 10 -6
32 -8 53 -4 28 5 37 12 37 26 0 17 6 20 38 17 20 -1 42 -7 47 -14 6 -7 26 -13
45 -15 19 -2 34 -8 33 -14 -1 -7 5 -11 15 -10 9 0 16 -5 14 -11 -3 -17 9 -16
44 2 16 8 37 12 47 9 12 -4 28 2 42 16 14 14 25 18 29 11 5 -7 14 -6 29 3 24
16 102 25 113 13 4 -4 19 -7 34 -7 14 0 51 -12 81 -27 60 -30 94 -35 124 -19
11 5 43 13 70 16 l50 5 47 95 c45 92 86 206 105 300 11 49 14 43 28 -43 6 -36
7 -38 24 -23 19 17 41 21 41 7 0 -5 -7 -11 -15 -15 -8 -3 -15 -10 -15 -15 0
-6 7 -8 16 -4 14 5 15 3 5 -15 -11 -20 -9 -21 28 -16 55 6 61 -12 17 -53 -20
-19 -36 -31 -36 -28 0 4 -7 0 -15 -8 -13 -13 -13 -21 2 -62 18 -54 52 -80 119
-90 39 -5 47 -3 63 16 21 26 43 18 39 -14 -4 -25 36 -49 68 -41 12 3 26 -1 33
-10 11 -13 15 -13 40 2 26 15 30 15 54 -1 17 -11 57 -19 119 -23 87 -6 97 -4
153 21 80 36 142 40 175 10 14 -13 50 -27 84 -34 52 -10 63 -9 85 6 14 10 33
18 41 19 8 1 35 8 60 17 50 17 121 10 162 -17 33 -21 92 -30 116 -17 22 12 36
51 19 51 -7 0 -3 7 8 16 40 29 55 44 55 54 0 5 -7 7 -15 4 -25 -10 -17 22 10
40 29 19 39 20 29 5 -4 -7 -1 -10 7 -7 14 5 25 -2 59 -36 10 -10 26 -16 34
-13 9 4 16 2 16 -3 0 -6 -5 -10 -10 -10 -6 0 -15 -11 -20 -24 -10 -26 -47 -56
-76 -60 -10 -2 -20 -9 -22 -16 -4 -10 3 -11 26 -7 17 4 34 2 37 -3 4 -6 11 -8
16 -4 5 3 20 -1 32 -9 35 -22 74 -29 80 -13 3 7 18 17 34 20 15 4 42 18 60 32
23 17 44 24 77 24 25 0 46 5 46 10 0 6 6 10 13 9 30 -4 47 2 47 16 0 17 36 20
59 6 12 -8 12 -12 2 -25 -12 -14 -8 -16 34 -16 27 0 63 -8 84 -19 20 -10 48
-24 63 -31 36 -17 143 -7 168 15 14 13 27 15 47 10 15 -5 33 -7 38 -6 6 2 26
4 45 6 19 1 47 8 62 15 20 10 31 10 41 2 9 -8 24 -8 51 -1 41 11 68 6 109 -24
28 -19 31 -19 103 -3 91 20 153 21 179 2 15 -10 26 -11 45 -3 40 16 50 16 50
1 0 -12 8 -10 39 5 21 11 41 17 45 14 3 -4 6 -2 6 4 0 6 18 13 39 15 22 2 37
0 35 -3 -8 -13 24 -17 62 -9 22 4 50 7 64 5 14 -1 29 0 35 3 5 3 26 5 47 3 29
-2 38 1 38 14 0 13 11 16 58 15 72 -1 120 4 150 14 16 5 29 3 41 -8 19 -18 30
-13 105 51 22 18 44 33 49 33 23 0 77 52 77 74 0 12 2 25 5 28 5 4 17 162 17
208 0 20 -9 92 -20 164 -9 56 -6 78 15 150 12 38 -1 143 -20 164 -16 19 -23
43 -41 157 -15 91 -22 111 -42 119 -27 10 -9 151 32 246 17 40 16 168 -1 161
-14 -6 -22 40 -24 123 -1 55 -4 67 -13 58 -7 -7 -17 -12 -22 -12 -6 0 2 11 17
25 15 14 27 35 27 45 0 11 4 20 8 20 8 0 47 112 47 134 0 5 -16 10 -35 11 -57
3 -159 16 -188 24 -18 5 -35 3 -49 -7 -21 -13 -23 -13 -23 2 0 8 -10 18 -22
20 -13 3 -32 7 -43 9 -11 3 45 5 125 5 80 0 153 -3 164 -7 10 -4 30 -5 45 -3
l26 4 0 106 c0 59 -4 113 -8 119 -4 7 -5 39 -1 72 5 43 2 72 -11 110 -17 52
-15 79 13 166 10 32 0 75 -18 75 -5 0 -10 -4 -10 -10 0 -5 -6 -10 -14 -10 -7
0 -19 -7 -26 -15 -7 -9 -26 -25 -42 -36 -24 -17 -28 -18 -28 -4 0 8 11 21 25
27 14 6 25 16 25 22 0 7 25 27 55 45 30 18 60 40 67 49 9 12 5 11 -10 -2 -18
-16 -25 -17 -35 -7 -9 10 -8 15 7 27 11 8 30 14 43 14 18 0 23 6 23 25 0 14 9
36 21 48 11 12 27 34 35 50 13 24 13 31 -2 58 -11 23 -19 28 -27 20 -30 -30
-47 -5 -56 79 -5 42 -10 54 -21 51 -32 -8 -60 -9 -60 -2 0 4 20 27 45 51 l45
45 1 120 c0 66 1 134 1 152 2 42 -18 66 -43 52 -23 -12 -26 6 -3 19 14 8 14
10 0 24 -8 9 -12 18 -9 22 3 3 0 12 -7 21 -8 10 -9 19 -3 28 5 6 9 62 8 123
-2 104 -4 114 -28 146 -15 19 -38 40 -52 48 -14 7 -25 20 -25 28 0 7 -28 42
-63 77 -50 50 -70 63 -100 67 -21 2 -40 0 -43 -4 -9 -14 -24 -9 -18 7 8 20
-24 32 -45 17 -9 -7 -26 -16 -38 -22 -13 -5 -23 -15 -23 -21 0 -6 -7 -9 -15
-5 -8 3 -22 -2 -30 -11 -13 -12 -19 -13 -28 -4 -9 10 -7 17 12 32 13 10 31 19
41 19 9 0 27 9 40 20 20 17 63 26 105 21 6 0 33 7 60 17 33 12 49 23 47 34 -1
8 13 23 33 34 31 17 37 17 45 4 8 -13 10 -13 10 2 0 9 16 29 34 43 42 32 67
72 99 162 14 37 35 90 47 118 45 105 65 294 35 335 -52 70 -90 149 -90 187 0
24 -4 43 -9 43 -5 0 -3 6 3 14 8 10 9 16 1 21 -6 3 -8 11 -5 16 7 11 -24 0
-44 -15 -10 -8 -17 -5 -27 9 -12 16 -12 21 0 34 7 9 11 22 9 29 -3 7 1 20 9
29 15 18 57 94 94 172 27 59 39 143 23 173 -6 12 -6 25 1 38 8 15 7 28 -5 54
-16 33 -38 46 -82 46 -31 0 -29 15 6 41 21 16 31 33 36 64 3 24 15 55 26 68
13 17 15 27 7 29 -7 3 -2 13 13 27 l24 24 -30 -7 c-24 -6 -28 -5 -17 5 6 7 12
26 12 42 0 22 4 28 15 23 8 -3 15 -1 15 5 0 6 10 19 22 28 20 17 20 19 5 41
-10 14 -14 34 -10 55 3 18 1 35 -5 39 -6 3 -97 1 -204 -6 -117 -7 -205 -8
-223 -3 -24 7 -5 11 85 16 284 17 318 22 332 43 11 16 10 94 -2 101 -5 3 -10
26 -10 49 0 36 -3 44 -17 42 -15 -1 -18 7 -16 54 2 30 3 69 3 85 1 54 -18 199
-30 230 -6 16 -9 45 -5 63 5 29 3 34 -16 39 -21 6 -21 7 -4 19 13 10 16 21 11
46 -12 58 -12 119 0 126 14 8 7 62 -8 62 -5 0 -6 5 -3 10 3 6 -1 13 -10 16
-12 5 -13 9 -4 20 7 8 9 17 6 20 -3 3 0 27 8 52 15 57 14 94 -3 114 -10 13
-10 18 1 29 24 25 28 50 11 67 -15 15 -15 17 5 33 22 18 51 77 51 104 0 12 -4
14 -19 6 -14 -8 -20 -7 -24 3 -3 8 2 16 14 19 23 6 38 39 20 45 -9 3 -8 9 4
22 13 14 14 23 6 39 -13 23 -15 91 -3 91 4 0 7 39 6 88 -1 78 -4 94 -36 157
-23 44 -47 76 -65 86 -68 40 -252 74 -267 50 -3 -4 -24 -8 -47 -8 -26 0 -47
-6 -53 -15 -19 -25 -66 -28 -108 -6 -26 14 -50 19 -71 15 -18 -3 -52 -2 -76 3
-31 5 -51 4 -72 -7 -34 -17 -106 -14 -154 7 -26 11 -36 10 -65 -3 -40 -18 -99
-32 -118 -28 -8 1 -28 -9 -47 -23 l-32 -25 0 25 c0 14 6 28 13 31 29 11 12 22
-26 17 -24 -3 -40 -1 -40 6 0 5 -17 10 -38 10 -21 0 -42 4 -48 10 -5 5 -48 12
-94 15 -46 3 -89 9 -94 14 -19 14 -65 21 -71 11z"/>
<path d="M198 8303 c7 -3 16 -2 19 1 4 3 -2 6 -13 5 -11 0 -14 -3 -6 -6z"/>
<path d="M162 6365 c-17 -19 -1 -19 24 0 14 11 15 14 4 14 -8 0 -21 -6 -28
-14z"/>
<path d="M100 4630 c-13 -8 -12 -10 3 -10 9 0 17 5 17 10 0 12 -1 12 -20 0z"/>
<path d="M12680 3280 c0 -5 5 -10 11 -10 5 0 7 5 4 10 -3 6 -8 10 -11 10 -2 0
-4 -4 -4 -10z"/>
<path d="M5706 171 c-3 -5 1 -14 10 -22 12 -10 17 -10 27 2 7 8 8 11 3 7 -14
-11 -28 -10 -21 1 3 5 1 12 -4 15 -5 4 -12 2 -15 -3z"/>
</g>
</svg>
