<?xml version="1.0" standalone="no"?>
<!DOCTYPE svg PUBLIC "-//W3C//DTD SVG 20010904//EN"
 "http://www.w3.org/TR/2001/REC-SVG-20010904/DTD/svg10.dtd">
<svg version="1.0" xmlns="http://www.w3.org/2000/svg"
 width="1280.000000pt" height="743.000000pt" viewBox="0 0 1280.000000 743.000000"
 preserveAspectRatio="xMidYMid meet">
<metadata>
Created by potrace 1.15, written by Peter Selinger 2001-2017
</metadata>
<g transform="translate(0.000000,743.000000) scale(0.100000,-0.100000)"
fill="#000000" stroke="none">
<path d="M1310 7424 c-216 -35 -417 -179 -509 -364 -82 -166 -75 -30 -78
-1571 l-4 -1377 -52 -6 c-29 -4 -71 -16 -94 -26 -127 -56 -291 -298 -242 -356
24 -29 134 1 332 90 l57 26 -1 -833 0 -832 -114 -93 c-165 -135 -352 -308
-381 -352 -33 -50 -30 -95 9 -124 41 -30 170 -26 350 12 75 16 139 26 142 24
3 -3 5 -19 5 -37 0 -54 29 -147 72 -235 78 -156 222 -276 406 -339 l77 -26
939 -5 939 -5 -49 -60 c-180 -218 -315 -411 -371 -531 -29 -64 -34 -86 -34
-148 0 -86 28 -170 73 -222 35 -40 60 -43 83 -11 9 12 54 141 102 287 47 147
126 360 176 477 l90 213 4136 2 4136 3 77 26 c116 40 205 94 283 173 111 113
173 236 194 390 8 52 11 562 11 1580 l0 1502 38 13 c77 27 258 121 290 150 75
70 26 106 -218 156 l-105 21 -5 920 c-5 820 -7 925 -22 974 l-17 55 32 27
c105 89 290 173 533 243 87 26 169 53 182 61 48 31 16 76 -63 88 -22 4 -121
14 -220 23 -164 15 -659 17 -5670 19 -3020 1 -5501 0 -5515 -2z"/>
</g>
</svg>
